<svg width="250" height="170" viewBox="0 0 250 170" fill="none" xmlns="http://www.w3.org/2000/svg">
<path fill-rule="evenodd" clip-rule="evenodd" d="M131.21 70.5071C131.104 72.0864 131.234 73.6814 131.593 75.2233C131.745 75.8737 132.721 75.9938 133.228 75.5595C133.735 75.1252 133.87 74.4033 133.924 73.7379C134.005 72.7542 133.979 71.7622 133.847 70.7839C133.779 70.2785 133.674 69.7574 133.37 69.3484C133.065 68.9395 132.507 68.6777 132.031 68.8601C131.425 69.0928 131.253 69.8588 131.21 70.5071Z" fill="white" fill-opacity="0.8"/>
<path fill-rule="evenodd" clip-rule="evenodd" d="M49.4843 33.7439C55.0524 30.9864 61.7015 30.4922 67.6162 32.3969C69.1019 29.5414 71.2913 27.0553 73.9353 25.22C74.4452 24.8659 75.1754 24.5459 75.6342 24.9644C75.4497 27.8985 75.2648 30.8413 75.4381 33.7759C75.5732 36.0604 75.9247 38.3316 75.9572 40.6198C76.0498 47.2332 73.4574 53.6387 69.9302 59.2339C78.3979 64.9287 84.7815 73.6533 87.6466 83.4472C86.4484 84.0656 55.0931 85.1553 38.1328 83.7992C37.74 84.0656 37.3722 83.4226 37.3273 82.9501C36.8735 78.1716 36.6188 73.3063 37.6104 68.6101C38.6015 63.9134 40.9708 59.3486 44.8853 56.5707C41.2526 48.6616 42.6652 38.9591 38.2337 31.4685C37.9707 31.0238 37.7492 30.3302 38.2096 30.0958C38.3805 30.0089 38.5845 30.0359 38.7736 30.0679C41.8635 30.5924 44.808 31.951 47.2118 33.9625C47.8319 34.4815 48.7595 34.1025 49.4843 33.7439Z" fill="#19AECC"/>
<path fill-rule="evenodd" clip-rule="evenodd" d="M169.637 82.9631C169.616 82.9631 172.857 78.1044 174.844 75.8439C176.659 73.7797 177.722 71.0696 177.796 68.3221C171.522 68.0744 165.278 67.0375 159.261 65.2447C158.34 64.9699 157.39 64.6587 156.691 63.9983C155.061 62.4564 155.465 59.7671 156.305 57.6867C157.326 55.1615 158.809 52.8238 160.658 50.8244C161.29 50.1407 161.976 49.4804 162.391 48.6467C162.804 47.8126 162.892 46.7395 162.333 45.9944C161.391 44.7393 161.193 43.0902 161.095 41.5242C160.997 39.9579 160.952 38.3296 160.241 36.9311C159.529 35.5322 157.914 34.445 156.413 34.9034C156.049 34.3478 156.768 33.7065 157.401 33.5054C159.791 32.7457 162.469 33.4106 164.565 34.7891C166.661 36.1677 168.25 38.1891 169.616 40.2933C170.15 41.1149 171.051 42.0795 171.921 41.6281C177.856 38.5457 185.101 38.0964 191.372 40.4221C192.244 40.745 193.584 40.8834 193.762 39.9712C194.647 35.4267 198.44 31.5887 202.973 30.6494C201.191 31.9269 201.084 34.5261 201.44 36.6896C201.797 38.8528 202.425 41.1573 201.536 43.1613C200.818 44.7788 202.626 46.299 204.09 47.2927C206.302 48.7938 208.279 50.6382 209.929 52.7403C211.563 54.8199 212.924 57.493 212.178 60.0298C211.202 63.3508 207.293 64.6653 203.93 65.4853C200.647 66.2857 197.364 67.0861 194.081 67.8866C194.021 71.0891 195.164 74.3004 197.235 76.7441C198.896 78.7045 201.31 80.7251 200.782 83.2398C201.888 84.9936 191.506 84.9014 169.637 82.9631Z" fill="#A96DF7"/>
<path fill-rule="evenodd" clip-rule="evenodd" d="M177.517 126.275C178.648 126.974 179.902 127.813 181.196 127.501C184.19 126.778 187.396 126.96 190.29 128.015C191.508 128.459 192.613 127.199 193.376 126.151C195.592 123.109 198.49 120.566 201.795 118.765C204.073 122.505 201.765 127.681 203.746 131.587C206.813 137.632 205.998 145.44 201.75 150.722C206.208 155.077 209.239 160.87 210.276 167.016C209.746 167.172 182.593 170.54 167.684 166.499C167.519 162.168 169.08 157.794 171.952 154.547C167.689 149.527 165.609 142.715 166.342 136.169C166.418 135.488 166.516 134.762 166.212 134.148C164.622 130.927 163.526 127.462 162.976 123.913C162.943 123.701 162.916 123.468 163.028 123.286C163.177 123.042 163.502 122.99 163.785 122.966C168.558 122.577 173.445 123.755 177.517 126.275Z" fill="#D37D61"/>
<path fill-rule="evenodd" clip-rule="evenodd" d="M57.0201 166.967C57.7367 163.451 58.4539 159.934 59.1705 156.416C59.3566 155.504 59.3308 154.281 58.2567 153.995C54.9077 153.103 52.0775 150.981 50.6959 148.327C50.261 147.491 48.9178 147.193 47.8498 147.439C46.7823 147.685 45.9301 148.329 45.1218 148.952C45.583 147.476 47.2381 146.303 49.0875 146.142C49.7152 145.276 48.8162 144.078 47.6252 143.826C46.4342 143.574 45.1794 144.014 44.1844 144.607C44.107 143.668 45.5023 143.208 46.5594 142.839C47.617 142.47 48.6493 141.304 47.7477 140.72C47.355 140.465 46.7966 140.51 46.3007 140.568C44.867 140.736 43.4338 140.905 42 141.072C42.1631 140.126 43.6627 139.884 44.8252 139.811C45.9872 139.738 47.4879 139.274 47.3583 138.324C46.8603 134.666 47.9415 130.956 49.7454 127.584C51.2401 124.792 46.8416 121.994 47.1299 118.954C47.1524 118.719 47.2211 118.461 47.4528 118.32C47.7295 118.152 48.1167 118.22 48.4456 118.303C50.7102 118.876 52.81 119.881 54.5304 121.217C55.3651 121.865 56.7104 121.423 57.7609 121.039C61.6355 119.622 66.1767 119.475 70.1749 120.637C73.7859 121.687 76.9884 116.623 80.567 117.745C79.6533 120.209 78.7401 122.672 77.8269 125.135C77.5748 125.815 77.3365 126.595 77.7945 127.198C79.3375 129.23 80.2732 131.569 80.4978 133.955C80.6554 135.636 81.0524 137.906 83.1034 138.038C82.21 138.36 81.2248 138.761 80.9157 139.519C80.6065 140.278 81.6636 141.279 82.4637 140.821C83.1545 140.426 84.2708 140.756 84.4954 141.421C83.312 141.326 82.0288 141.432 81.1035 142.044C80.1782 142.656 79.8152 143.894 80.5994 144.627C82.3198 144.046 84.3515 144.122 86 144.829C85.0176 145.421 83.6684 145.246 82.451 145.187C81.2336 145.127 79.7515 145.358 79.3205 146.292C77.8829 149.413 74.3504 151.82 70.3446 152.41C68.3716 152.7 68.0547 154.887 68.2178 156.525C68.5588 159.96 68.8998 163.395 69.2414 166.831C68.5385 167.377 60.3785 168.135 57.0201 166.967Z" fill="#D6C57A"/>
<path fill-rule="evenodd" clip-rule="evenodd" d="M12.0534 151.98C11.9476 153.559 12.0772 155.154 12.4366 156.696C12.5881 157.346 13.5638 157.466 14.0709 157.032C14.578 156.598 14.7131 155.876 14.7677 155.21C14.8485 154.227 14.8226 153.235 14.6906 152.256C14.6224 151.751 14.5177 151.23 14.2129 150.821C13.9081 150.412 13.3508 150.15 12.8747 150.333C12.2681 150.565 12.0969 151.331 12.0534 151.98Z" fill="white" fill-opacity="0.8"/>
<path fill-rule="evenodd" clip-rule="evenodd" d="M134.7 160.687C134.89 160.793 134.862 161.098 134.703 161.245C134.543 161.392 134.313 161.423 134.097 161.448C133.345 161.535 132.518 161.604 131.895 161.175C132.212 160.949 132.529 160.723 132.845 160.497C132.646 160.211 132.255 160.154 131.91 160.111C131.564 160.069 131.171 159.986 131.002 159.681C130.834 159.377 131.202 158.892 131.478 159.104C132.332 159.757 133.587 159.832 134.511 159.284C135.12 158.923 135.697 158.297 136.391 158.432C135.906 159.378 134.944 160.062 133.892 160.212C133.916 160.579 134.368 160.845 134.7 160.687Z" fill="white"/>
<path fill-rule="evenodd" clip-rule="evenodd" d="M13.9852 160.195C13.2327 160.282 12.4046 160.352 11.7815 159.921C12.1006 159.694 12.4197 159.468 12.7388 159.241C12.519 158.963 12.1245 158.915 11.7733 158.867C11.4222 158.819 11.0227 158.711 10.8772 158.388C10.7318 158.064 11.1668 157.612 11.4149 157.865C12.0247 158.487 13.0379 158.527 13.8619 158.244C14.6859 157.962 15.3891 157.418 16.1404 156.977C16.1595 158.088 14.8578 158.674 13.7862 158.971C13.8111 159.333 14.2598 159.593 14.5863 159.434C14.7759 159.539 14.75 159.844 14.5907 159.991C14.4314 160.138 14.2005 160.17 13.9852 160.195Z" fill="white"/>
<path fill-rule="evenodd" clip-rule="evenodd" d="M131.744 152.811C131.638 154.39 131.768 155.985 132.127 157.527C132.279 158.177 133.255 158.297 133.762 157.863C134.269 157.429 134.404 156.707 134.459 156.042C134.539 155.058 134.513 154.066 134.382 153.088C134.314 152.582 134.208 152.061 133.904 151.652C133.599 151.243 133.042 150.981 132.566 151.164C131.959 151.397 131.788 152.162 131.744 152.811Z" fill="white" fill-opacity="0.8"/>
<path fill-rule="evenodd" clip-rule="evenodd" d="M130.069 76.7742C130.155 76.4907 130.522 76.3873 130.81 76.455C131.098 76.5227 131.344 76.7073 131.617 76.824C132.633 77.2596 133.798 76.6927 134.662 76.0024C134.952 75.7709 135.419 75.5378 135.638 75.8374C135.117 76.7222 134.189 77.356 133.175 77.5193C133.206 77.8826 133.651 78.1419 133.982 77.9898C134.169 78.0966 134.141 78.3987 133.983 78.5442C133.824 78.6896 133.595 78.7212 133.381 78.7462C132.634 78.833 131.817 78.9037 131.19 78.4885C131.525 78.2258 131.859 77.9632 132.193 77.7005C131.418 77.5958 130.674 77.2712 130.069 76.7742Z" fill="white"/>
<path fill-rule="evenodd" clip-rule="evenodd" d="M163.785 122.966C168.558 122.577 173.445 123.755 177.517 126.275C178.648 126.974 179.902 127.813 181.196 127.501C184.19 126.778 187.396 126.96 190.29 128.015C191.508 128.459 192.613 127.199 193.376 126.151C195.592 123.109 198.49 120.566 201.795 118.765C204.073 122.505 201.765 127.681 203.746 131.587C206.813 137.632 205.998 145.44 201.75 150.722C206.208 155.077 209.239 160.87 210.276 167.016C209.746 167.172 209.398 166.48 209.27 165.943C208.126 161.14 205.855 156.61 202.69 152.821C201.949 151.934 200.738 151.014 199.76 151.632C191.993 156.536 182.148 158.017 173.282 155.615C171.819 155.219 170.78 156.995 170.311 158.436C169.435 161.123 168.559 163.811 167.684 166.499C167.519 162.168 169.08 157.794 171.952 154.547C167.689 149.527 165.609 142.715 166.342 136.169C166.418 135.488 166.516 134.762 166.212 134.148C164.622 130.927 163.526 127.462 162.976 123.913C162.943 123.701 162.916 123.468 163.028 123.286C163.177 123.042 163.502 122.99 163.785 122.966ZM183.142 131.571C181.456 133.119 180.066 134.988 179.068 137.048C178.479 135.073 178.798 132.845 179.919 131.116C178.403 131.683 177 132.548 175.813 133.649C175.814 132.004 176.65 130.381 177.989 129.425C177.409 129.442 176.83 129.458 176.25 129.475C176.854 128.727 177.704 128.18 178.637 127.942C174.367 124.897 169.014 123.405 163.785 123.802C164.707 129.252 166.909 134.482 170.162 138.951C168.772 138.383 167.636 137.222 167.098 135.82C166.502 141.438 167.932 147.25 171.067 151.95C171.651 152.825 172.304 153.675 173.151 154.298C174.556 155.333 176.357 155.65 178.095 155.809C185.045 156.444 192.175 154.967 198.302 151.623C199.479 150.98 200.633 150.26 201.567 149.297C202.801 148.022 203.594 146.374 204.104 144.674C205.442 140.213 204.874 135.214 202.57 131.167C202.154 132.409 201.738 133.65 201.322 134.892C201.146 135.416 200.367 135.962 200.218 135.43C202.285 130.534 202.728 124.967 201.463 119.805C196.743 122.937 192.788 127.213 190.034 132.162C189.918 131.009 190.214 129.82 190.857 128.855C187.877 131.138 185.295 133.937 183.26 137.091C182.89 135.278 182.85 133.398 183.142 131.571Z" fill="black"/>
<path fill-rule="evenodd" clip-rule="evenodd" d="M9.35376 77.7027C9.75601 77.7733 10.1902 77.6191 10.4579 77.3108C9.64526 77.1661 8.86747 76.8291 8.20605 76.3349C8.46958 75.884 9.14459 76.155 9.63117 76.3453C10.8098 76.8062 12.2813 76.3329 12.9698 75.2706C13.155 74.9851 13.651 75.3126 13.5966 75.6484C13.5422 75.9846 13.2109 76.1924 12.9124 76.3561C12.3419 76.6687 11.7715 76.9812 11.2011 77.2937C11.6699 77.3361 12.1212 77.5501 12.4503 77.8868C11.8285 78.3934 10.9527 78.4033 10.1509 78.3888C9.93318 78.3851 9.70315 78.3776 9.51892 78.2616C9.33468 78.1457 9.22655 77.8797 9.35376 77.7027Z" fill="white"/>
<path fill-rule="evenodd" clip-rule="evenodd" d="M9.55991 69.6922C9.4541 71.2714 9.58364 72.8669 9.94305 74.4083C10.0946 75.0587 11.0703 75.1788 11.5773 74.7445C12.0844 74.3102 12.2196 73.5883 12.2742 72.923C12.3549 71.9393 12.3291 70.9472 12.1971 69.9689C12.1289 69.4636 12.0242 68.9424 11.7193 68.5335C11.4145 68.1245 10.8573 67.8627 10.3811 68.0452C9.77461 68.2779 9.60334 69.0438 9.55991 69.6922Z" fill="white" fill-opacity="0.8"/>
<path fill-rule="evenodd" clip-rule="evenodd" d="M169.637 82.9631C169.837 79.96 172.857 78.1044 174.844 75.8439C176.659 73.7797 177.722 71.0696 177.796 68.3221C171.522 68.0744 165.278 67.0375 159.261 65.2447C158.34 64.9699 157.39 64.6587 156.691 63.9983C155.061 62.4564 155.465 59.7671 156.305 57.6867C157.326 55.1615 158.809 52.8238 160.658 50.8244C161.29 50.1407 161.976 49.4804 162.391 48.6467C162.804 47.8126 162.892 46.7395 162.333 45.9944C161.391 44.7393 161.193 43.0902 161.095 41.5243C160.997 39.9579 160.952 38.3296 160.241 36.9311C159.529 35.5322 157.914 34.445 156.413 34.9034C156.049 34.3478 156.768 33.7065 157.401 33.5054C159.791 32.7457 162.469 33.4106 164.565 34.7891C166.661 36.1677 168.25 38.1891 169.616 40.2933C170.15 41.1149 171.051 42.0795 171.921 41.6281C177.856 38.5457 185.101 38.0964 191.372 40.4221C192.244 40.745 193.584 40.8834 193.762 39.9712C194.647 35.4267 198.44 31.5887 202.973 30.6494C201.191 31.9269 201.084 34.5261 201.44 36.6896C201.797 38.8528 202.425 41.1573 201.536 43.1613C200.818 44.7788 202.626 46.299 204.09 47.2927C206.302 48.7938 208.279 50.6382 209.929 52.7403C211.563 54.8199 212.924 57.493 212.178 60.0298C211.202 63.3508 207.293 64.6653 203.93 65.4853C200.647 66.2857 197.364 67.0861 194.081 67.8866C194.021 71.0891 195.164 74.3004 197.235 76.7441C198.896 78.7045 201.31 80.7251 200.782 83.2398C199.658 80.5659 197.551 78.4526 195.858 76.0975C194.165 73.7427 192.831 70.7957 193.596 67.9984C192.098 67.4623 190.525 68.5337 189.392 69.6512C188.258 70.7687 187.063 72.0862 185.473 72.1755C182.856 72.3226 181.221 69.1284 178.663 68.5569C178.604 70.2696 178.156 71.9681 177.362 73.4871C176.518 75.1025 175.305 76.4906 174.104 77.8621C172.615 79.5623 171.126 81.2625 169.637 82.9631ZM172.076 42.3359C170.485 43.1101 172.95 46.1344 171.525 47.1846C170.793 43.2091 168.716 39.4932 165.713 36.7869C163.763 35.0289 161.175 33.6442 158.596 34.1325C160.104 34.7251 161.022 36.2928 161.417 37.8645C161.812 39.4359 161.798 41.0808 162.073 42.6779C162.557 45.489 163.963 48.1338 166.023 50.1071C165.084 50.0946 164.176 49.5182 163.764 48.6745C160.876 51.2712 158.555 54.4957 157.01 58.0586C156.4 59.4642 155.924 61.1407 156.679 62.4739C157.315 63.5989 158.633 64.1217 159.862 64.5199C164.286 65.9524 168.889 66.8347 173.529 67.1398C176.302 67.3218 179.296 67.3679 181.512 69.044C182.317 69.6529 182.979 70.4541 183.856 70.9532C184.734 71.4524 185.972 71.5542 186.655 70.8111C189.323 67.9098 193.379 66.7853 197.255 66.0717C201.131 65.3581 205.178 64.8806 208.557 62.8529C209.825 62.0915 211.027 61.038 211.437 59.6167C211.995 57.6846 210.954 55.6677 209.778 54.0365C207.406 50.7471 204.32 47.9751 200.796 45.9686C200.642 46.5787 200.265 47.1298 199.752 47.4942C199.586 46.8035 199.888 46.0987 200.13 45.4308C201.625 41.3019 200.943 36.7428 200.244 32.4078C195.657 35.0547 193.274 41.0081 194.767 46.0891C193.893 46.2516 193.479 45.026 193.564 44.1404C193.649 43.2548 193.72 42.0982 192.899 41.7541C186.298 38.9875 178.512 39.2052 172.076 42.3359Z" fill="black"/>
<path fill-rule="evenodd" clip-rule="evenodd" d="M60.4322 133.188C61.1117 134.087 61.1871 135.25 60.627 136.198C60.3299 136.701 59.3249 136.684 58.82 136.295C58.3157 135.907 58.1833 135.318 58.0859 134.769C57.997 134.272 57.9204 133.748 58.1618 133.284C58.4039 132.819 59.0798 132.454 59.6815 132.624C60.0143 132.718 60.252 132.95 60.4322 133.188Z" fill="black"/>
<path fill-rule="evenodd" clip-rule="evenodd" d="M69.2414 167.443C67.3129 163.382 66.6687 158.906 67.3914 154.582C65.5743 156.234 62.2214 156.516 60.0425 155.2C60.5636 159.453 59.495 163.832 57.0201 167.582C57.7367 164.021 58.4539 160.461 59.1705 156.899C59.3566 155.975 59.3308 154.738 58.2567 154.448C54.9077 153.545 52.0775 151.397 50.6959 148.709C50.261 147.863 48.9178 147.562 47.8498 147.811C46.7823 148.06 45.9301 148.712 45.1218 149.343C45.583 147.848 47.2381 146.66 49.0875 146.498C49.7152 145.62 48.8162 144.407 47.6252 144.153C46.4342 143.897 45.1794 144.343 44.1844 144.944C44.107 143.992 45.5023 143.527 46.5594 143.153C47.617 142.779 48.6493 141.599 47.7477 141.007C47.355 140.75 46.7966 140.796 46.3007 140.854C44.867 141.024 43.4338 141.195 42 141.365C42.1631 140.407 43.6627 140.161 44.8252 140.087C45.9872 140.013 47.4879 139.544 47.3583 138.582C46.8603 134.879 47.9415 131.122 49.7454 127.709C51.2401 124.881 46.8416 122.049 47.1299 118.971C47.1524 118.733 47.2211 118.472 47.4528 118.33C47.7295 118.16 48.1167 118.227 48.4456 118.312C50.7102 118.892 52.81 119.91 54.5304 121.262C55.3651 121.918 56.7104 121.471 57.7609 121.082C61.6355 119.647 66.1767 119.499 70.1749 120.676C73.7859 121.738 76.9884 116.611 80.567 117.747C79.6533 120.241 78.7401 122.735 77.8269 125.229C77.5748 125.917 77.3365 126.707 77.7945 127.318C79.3375 129.375 80.2732 131.743 80.4978 134.159C80.6554 135.86 81.0524 138.159 83.1034 138.292C82.21 138.618 81.2248 139.025 80.9157 139.792C80.6065 140.56 81.6636 141.573 82.4637 141.11C83.1545 140.71 84.2708 141.044 84.4954 141.717C83.312 141.621 82.0288 141.728 81.1035 142.348C80.1782 142.968 79.8152 144.221 80.5994 144.963C82.3198 144.375 84.3515 144.452 86 145.168C85.0176 145.767 83.6684 145.59 82.451 145.53C81.2336 145.47 79.7515 145.703 79.3205 146.649C77.8829 149.809 74.3504 152.246 70.3446 152.843C68.3716 153.137 68.0547 155.351 68.2178 157.009C68.5588 160.487 68.8998 163.965 69.2414 167.443ZM70.8338 142.445C70.2023 142.924 69.1123 143.423 68.6445 142.829C71.3483 140.422 75.0555 138.806 78.9784 138.324C79.7785 138.226 79.9558 137.339 79.8987 136.67C79.617 133.375 78.4776 130.132 76.5809 127.228C76.2965 127.839 75.3959 128.197 74.6442 127.999C76.8868 125.203 78.3623 121.987 78.9273 118.662C75.3377 119.896 72.1484 121.922 69.7751 124.475C69.4445 123.495 69.9728 122.36 71.0112 121.82C66.2761 120.378 60.8343 120.619 56.3107 122.47C56.4287 123.079 56.5462 123.688 56.6637 124.297C54.4447 122.067 51.5531 120.301 48.327 119.207C49.3758 122.457 50.9046 125.599 52.8688 128.542C52.016 128.695 51.0896 128.082 51.0797 127.358C49.2978 130.575 48.3182 134.097 48.2204 137.637C48.1924 138.654 48.6861 140.031 49.9063 139.926C53.2372 139.64 56.695 140.601 59.1452 142.494C56.8708 141.949 54.5963 141.404 52.3218 140.859C51.3427 140.624 50.2203 140.405 49.3621 140.86C48.5043 141.316 48.6059 142.73 49.6246 142.747C52.2927 142.101 55.3074 142.535 57.5583 143.887C54.9236 143.401 52.1686 143.37 49.5191 143.797C48.8585 145.12 51.1028 146.156 52.8292 146.149C54.5551 146.142 56.7165 145.987 57.5544 147.239C55.4381 147.148 53.3218 147.057 51.2055 146.966C51.7864 150.094 55.0279 152.752 58.8053 153.196C59.5263 153.281 59.9991 153.837 60.5356 154.246C62.67 155.87 66.7681 154.767 67.3469 152.413C72.2626 152.287 76.9444 149.575 78.7785 145.788C76.2855 146.082 73.7919 146.376 71.2984 146.669C71.8821 145.735 73.2686 145.377 74.5294 145.268C75.7907 145.159 77.124 145.196 78.242 144.7C79.36 144.204 80.0865 142.896 79.2859 142.08C76.1707 142.988 73.055 143.897 69.9393 144.806C70.976 143.523 72.6108 142.584 74.4212 142.229C75.6837 141.981 77.0252 142.005 78.2332 141.613C79.4413 141.221 80.5203 140.188 80.1788 139.15C76.7358 139.333 73.3817 140.515 70.8338 142.445Z" fill="black"/>
<path fill-rule="evenodd" clip-rule="evenodd" d="M68.1313 131.474C67.6926 131.457 67.1623 131.396 67 131.101C68.0679 130.226 70.3811 130.505 71 131.582C70.0438 131.546 69.0875 131.51 68.1313 131.474Z" fill="black"/>
<path fill-rule="evenodd" clip-rule="evenodd" d="M65.7896 149.48C66.1087 149.837 66.0422 150.398 65.7424 150.768C65.4427 151.139 64.9633 151.349 64.4812 151.472C63.7804 151.651 62.9498 151.648 62.4163 151.189C61.6436 150.526 62.0157 149.175 62.9653 148.754C63.915 148.333 65.1177 148.728 65.7896 149.48ZM63.0206 149.684C62.7787 150.101 63.2914 150.615 63.8013 150.616C64.3113 150.617 64.751 150.302 65.1456 150.003C64.6265 149.476 63.701 149.345 63.0361 149.703L63.0206 149.684Z" fill="black"/>
<path fill-rule="evenodd" clip-rule="evenodd" d="M69.1563 136.488C68.3951 136.795 67.4328 136.303 67.145 135.662C66.8573 135.021 67.05 134.312 67.272 133.654C67.3983 133.279 67.5676 132.869 67.9902 132.678C68.5579 132.421 69.3164 132.714 69.6465 133.164C69.976 133.614 69.9923 134.162 69.9994 134.683C70.0085 135.362 69.9161 136.183 69.1563 136.488Z" fill="black"/>
<path fill-rule="evenodd" clip-rule="evenodd" d="M57.7919 149.549C59.688 149.748 61.6872 149 62.738 147.698C63.7883 146.397 63.839 144.605 62.8631 143.265C62.3469 142.556 61.5615 141.673 62.1867 141.025C62.5039 140.696 63.0676 140.612 63.5806 140.589C64.141 140.564 64.7371 140.593 65.2053 140.846C65.6736 141.098 65.9465 141.638 65.6617 142.032C64.5364 143.589 64.7091 145.701 66.0765 147.123C67.4445 148.545 69.9205 149.186 72.0448 148.668C72.4332 148.573 73.0703 148.605 72.9937 148.929C72.9748 149.008 72.9079 149.073 72.8394 149.131C71.6392 150.141 69.5591 149.976 68.0131 149.351C66.5766 148.77 65.344 147.859 64.4954 146.75C63.7359 147.805 62.9521 148.884 61.7896 149.658C60.6272 150.431 58.9873 150.849 57.5939 150.393C57.212 150.268 56.8161 149.894 57.0923 149.645C57.2573 149.496 57.547 149.523 57.7919 149.549Z" fill="black"/>
<path fill-rule="evenodd" clip-rule="evenodd" d="M60.9841 131.045C61.0936 131.27 60.6147 131.406 60.2571 131.431C59.5783 131.479 58.9002 131.527 58.2214 131.575C57.698 131.612 56.9456 131.511 57.0031 131.169C57.9356 130.526 59.5808 130.391 60.7255 130.865C60.8344 130.91 60.9451 130.965 60.9841 131.045Z" fill="black"/>
<path fill-rule="evenodd" clip-rule="evenodd" d="M174.141 160.09C174.05 159.224 174.07 158.207 174.757 157.672C175.359 157.201 176.215 157.313 176.967 157.447C178.163 157.661 179.358 157.875 180.553 158.089C181.487 158.255 182.486 158.416 183.355 158.033C184.048 157.728 184.841 158.055 185.598 158.062C186.216 158.067 186.812 157.855 187.394 157.647C189.178 157.006 190.962 156.366 192.745 155.726C193.073 155.608 193.438 155.491 193.761 155.622C194.251 155.822 194.361 156.454 194.399 156.983C194.442 157.584 194.485 158.186 194.528 158.788C194.581 159.522 194.629 160.29 194.341 160.968C194.053 161.646 193.315 162.194 192.602 162.01C190.76 161.535 188.886 161.183 186.997 160.958C186.617 160.913 186.122 160.94 185.997 161.302C185.71 162.132 184.523 161.999 183.657 161.853C181.671 161.517 179.555 162.04 177.954 163.262C177.525 163.589 177.125 163.969 176.63 164.183C176.135 164.398 175.502 164.41 175.11 164.04C174.842 163.787 174.736 163.411 174.65 163.054C174.416 162.078 174.246 161.088 174.141 160.09ZM183.102 159.399C180.691 158.941 178.269 158.546 175.838 158.213C175.455 158.161 175.098 158.478 174.971 158.843C174.845 159.209 174.894 159.61 174.949 159.993C175.072 160.834 175.22 161.671 175.393 162.503C175.448 162.764 175.511 163.036 175.687 163.235C175.864 163.433 176.193 163.523 176.4 163.355C177.717 162.285 179.277 161.514 180.928 161.119C181.425 161 181.94 160.91 182.379 160.65C182.818 160.389 183.171 159.905 183.102 159.399ZM189.962 157.536C188.679 157.89 187.316 158.293 186.454 159.306C186.192 159.614 186.138 160.269 186.542 160.254C188.558 160.178 190.588 160.492 192.487 161.175C192.89 161.32 193.345 161.031 193.536 160.647C193.727 160.263 193.72 159.815 193.71 159.386C193.691 158.579 193.671 157.771 193.651 156.963C193.648 156.833 193.63 156.678 193.513 156.621C193.436 156.583 193.344 156.605 193.26 156.628C192.161 156.931 191.061 157.234 189.962 157.536ZM183.693 160.534C183.749 160.724 183.83 160.915 183.98 161.044C184.348 161.361 184.967 161.134 185.214 160.716C185.46 160.298 185.435 159.778 185.379 159.296C185.311 158.718 184.448 158.529 184.011 158.913C183.573 159.297 183.528 159.976 183.693 160.534Z" fill="white"/>
<path d="M183.102 159.399C180.691 158.941 178.269 158.546 175.838 158.213C175.455 158.161 175.098 158.478 174.971 158.843C174.845 159.209 174.894 159.61 174.949 159.993C175.072 160.834 175.22 161.671 175.393 162.503C175.448 162.764 175.511 163.036 175.687 163.235C175.864 163.433 176.193 163.523 176.4 163.355C177.717 162.285 179.277 161.514 180.928 161.119C181.425 161 181.94 160.91 182.379 160.65C182.818 160.389 183.171 159.905 183.102 159.399Z" fill="white"/>
<path d="M183.693 160.534C183.749 160.724 183.83 160.915 183.98 161.044C184.348 161.361 184.967 161.134 185.214 160.716C185.46 160.298 185.435 159.778 185.379 159.296C185.311 158.718 184.448 158.529 184.011 158.913C183.573 159.297 183.528 159.976 183.693 160.534Z" fill="white"/>
<path d="M189.962 157.536C188.679 157.89 187.316 158.293 186.454 159.306C186.192 159.614 186.138 160.269 186.542 160.254C188.558 160.178 190.588 160.492 192.487 161.175C192.89 161.32 193.345 161.031 193.536 160.647C193.727 160.263 193.72 159.815 193.71 159.386L193.651 156.963C193.648 156.833 193.63 156.678 193.513 156.621C193.436 156.583 193.344 156.605 193.26 156.628C192.161 156.931 191.061 157.234 189.962 157.536Z" fill="white"/>
<path fill-rule="evenodd" clip-rule="evenodd" d="M174.141 160.09C174.05 159.224 174.07 158.207 174.757 157.672C175.359 157.201 176.215 157.313 176.967 157.447C178.163 157.661 179.358 157.875 180.553 158.089C181.487 158.255 182.486 158.416 183.355 158.033C184.048 157.728 184.841 158.055 185.598 158.062C186.216 158.067 186.812 157.855 187.394 157.647C189.178 157.006 190.962 156.366 192.745 155.726C193.073 155.608 193.438 155.491 193.761 155.622C194.251 155.822 194.361 156.454 194.399 156.983C194.442 157.584 194.485 158.186 194.528 158.788C194.581 159.522 194.629 160.29 194.341 160.968C194.053 161.646 193.315 162.194 192.602 162.01C190.76 161.535 188.886 161.183 186.997 160.958C186.617 160.913 186.122 160.94 185.997 161.302C185.71 162.132 184.523 161.999 183.657 161.853C181.671 161.517 179.555 162.04 177.954 163.262C177.525 163.589 177.125 163.969 176.63 164.183C176.135 164.398 175.502 164.41 175.11 164.04C174.842 163.787 174.736 163.411 174.65 163.054C174.416 162.078 174.246 161.088 174.141 160.09ZM183.102 159.399C180.691 158.941 178.269 158.546 175.838 158.213C175.455 158.161 175.098 158.478 174.971 158.843C174.845 159.209 174.894 159.61 174.949 159.993C175.072 160.834 175.22 161.671 175.393 162.503C175.448 162.764 175.511 163.036 175.687 163.235C175.864 163.433 176.193 163.523 176.4 163.355C177.717 162.285 179.277 161.514 180.928 161.119C181.425 161 181.94 160.91 182.379 160.65C182.818 160.389 183.171 159.905 183.102 159.399ZM189.962 157.536C188.679 157.89 187.316 158.293 186.454 159.306C186.192 159.614 186.138 160.269 186.542 160.254C188.558 160.178 190.588 160.492 192.487 161.175C192.89 161.32 193.345 161.031 193.536 160.647C193.727 160.263 193.72 159.815 193.71 159.386C193.691 158.579 193.671 157.771 193.651 156.963C193.648 156.833 193.63 156.678 193.513 156.621C193.436 156.583 193.344 156.605 193.26 156.628C192.161 156.931 191.061 157.234 189.962 157.536ZM183.693 160.534C183.749 160.724 183.83 160.915 183.98 161.044C184.348 161.361 184.967 161.134 185.214 160.716C185.46 160.298 185.435 159.778 185.379 159.296C185.311 158.718 184.448 158.529 184.011 158.913C183.573 159.297 183.528 159.976 183.693 160.534Z" fill="black"/>
<path fill-rule="evenodd" clip-rule="evenodd" d="M198.055 145.032C196.988 144.901 195.885 145.068 194.904 145.509C194.651 145.623 194.405 145.249 194.514 144.994C194.624 144.739 194.911 144.618 195.173 144.526C196.687 143.993 198.61 143.729 199.69 144.917C199.228 145.233 198.611 145.1 198.055 145.032Z" fill="black"/>
<path fill-rule="evenodd" clip-rule="evenodd" d="M186.403 150.691C186.428 151.516 185.647 152.185 184.836 152.333C184.024 152.48 183.198 152.238 182.409 151.998C181.722 151.789 181.508 150.824 181.87 150.205C182.233 149.585 182.966 149.278 183.675 149.162C184.259 149.067 184.879 149.077 185.415 149.326C185.951 149.575 186.385 150.1 186.403 150.691ZM182.597 150.889C182.636 151.136 182.925 151.243 183.168 151.303C183.639 151.418 184.126 151.535 184.606 151.464C185.086 151.392 185.565 151.087 185.69 150.617C184.977 149.88 183.703 149.779 182.882 150.394C182.722 150.514 182.566 150.691 182.597 150.889Z" fill="black"/>
<path fill-rule="evenodd" clip-rule="evenodd" d="M174.053 146.484C172.629 146.488 171.204 146.491 169.78 146.494C169.48 146.495 169.056 146.337 169.158 146.054C170.645 145.408 172.372 145.329 173.912 145.838C174.195 145.932 174.504 146.314 174.24 146.454C174.183 146.484 174.117 146.484 174.053 146.484Z" fill="black"/>
<path fill-rule="evenodd" clip-rule="evenodd" d="M189.813 141.064C189.895 140.555 190.035 139.966 190.505 139.756C190.959 139.555 191.51 139.842 191.771 140.265C192.032 140.687 192.075 141.203 192.113 141.698C191.47 141.757 190.828 141.815 190.185 141.874C189.841 141.905 189.759 141.405 189.813 141.064Z" fill="black"/>
<path fill-rule="evenodd" clip-rule="evenodd" d="M195.391 147.147C195.184 147.104 194.97 147.059 194.798 146.937C194.674 146.848 194.576 146.723 194.522 146.581C195.974 145.969 197.823 146.523 198.698 147.833C197.596 147.604 196.493 147.376 195.391 147.147Z" fill="black"/>
<path fill-rule="evenodd" clip-rule="evenodd" d="M192.404 138.299C192.773 137.709 193.693 137.985 194.249 138.403C194.798 138.815 195.289 139.304 195.704 139.851C195.686 140.172 195.187 140.099 194.917 139.924C194.079 139.382 193.241 138.841 192.404 138.299Z" fill="black"/>
<path fill-rule="evenodd" clip-rule="evenodd" d="M172.264 148.042C172.851 147.842 173.439 147.641 174.026 147.44C174.262 147.36 174.513 147.278 174.754 147.338C174.996 147.397 175.204 147.659 175.111 147.89C173.958 148.321 172.789 148.713 171.608 149.064C171.421 148.902 171.459 148.583 171.622 148.396C171.784 148.21 172.03 148.123 172.264 148.042Z" fill="black"/>
<path fill-rule="evenodd" clip-rule="evenodd" d="M177.137 140.638C177.361 140.79 177.476 141.053 177.58 141.303C177.719 141.635 177.86 141.994 177.785 142.346C177.71 142.698 177.315 143.001 176.992 142.843C176.625 142.664 176.227 143.32 175.866 143.131C175.695 143.041 175.662 142.815 175.65 142.622C175.616 142.104 175.589 141.555 175.834 141.097C176.08 140.64 176.706 140.347 177.137 140.638Z" fill="black"/>
<path fill-rule="evenodd" clip-rule="evenodd" d="M172.656 140.406C173.197 139.076 174.749 138.243 176.157 138.527C176.348 138.566 176.584 138.709 176.517 138.892C176.481 138.989 176.373 139.035 176.276 139.071C175.07 139.516 173.863 139.961 172.656 140.406Z" fill="black"/>
<path fill-rule="evenodd" clip-rule="evenodd" d="M179.844 147.131C179.541 147.169 179.154 147.14 179.04 146.856C179.244 146.694 179.487 146.522 179.741 146.581C179.995 146.64 180.087 147.082 179.832 147.136L179.844 147.131Z" fill="#64717C"/>
<path fill-rule="evenodd" clip-rule="evenodd" d="M185.917 146.695C186.236 146.642 186.404 146.193 186.199 145.943C185.993 145.693 185.52 145.772 185.407 146.075C185.293 146.378 185.598 146.748 185.917 146.695Z" fill="#64717C"/>
<path fill-rule="evenodd" clip-rule="evenodd" d="M178.827 148.859C178.38 148.794 177.805 148.503 177.943 148.073C178.435 147.789 179.046 148.032 179.609 148.113C180.171 148.195 180.931 147.887 180.838 147.326C180.932 147.562 181.026 147.799 181.12 148.035C181.693 147.882 182.227 147.589 182.663 147.188C182.91 146.961 183.13 146.571 182.911 146.317C182.404 145.73 182.955 144.63 183.728 144.684C184.502 144.738 184.895 145.904 184.311 146.415C184.16 146.548 184.312 146.791 184.469 146.917C185.563 147.795 187.089 148.108 188.441 147.729C189.045 147.56 189.817 147.312 190.201 147.808C188.273 149.201 185.343 148.958 183.67 147.269C182.728 148.805 180.61 149.117 178.827 148.859Z" fill="black"/>
<path fill-rule="evenodd" clip-rule="evenodd" d="M187.912 146.217C188.098 146.3 188.127 146.602 187.96 146.719C187.794 146.837 187.52 146.709 187.503 146.506C187.573 146.356 187.736 146.253 187.902 146.254L187.912 146.217Z" fill="#64717C"/>
<path fill-rule="evenodd" clip-rule="evenodd" d="M180.91 146.429C181.105 146.728 181.676 146.356 181.481 146.057C181.286 145.758 180.716 146.13 180.91 146.429Z" fill="#64717C"/>
<path fill-rule="evenodd" clip-rule="evenodd" d="M164.705 57.4888C163.956 57.5723 163.148 57.7548 162.485 57.3965C163.27 56.6593 164.44 56.5159 165.515 56.5687C167.338 56.6589 169.135 57.2124 170.693 58.1629C170.366 58.7651 169.463 58.4692 168.843 58.177C167.561 57.5736 166.112 57.3325 164.705 57.4888Z" fill="black"/>
<path fill-rule="evenodd" clip-rule="evenodd" d="M191.026 51.2274C190.907 50.7774 190.901 50.4091 191.312 50.1893C191.91 49.8697 193.797 49.8992 194.001 50.3647C194.205 50.8301 193.429 52.9704 192.34 52.9704C191.905 52.9704 191.145 51.6779 191.026 51.2274Z" fill="black"/>
<path fill-rule="evenodd" clip-rule="evenodd" d="M203.003 56.5305C200.659 56.6764 198.339 57.1884 196.151 58.042C195.851 58.1588 195.39 58.2045 195.322 57.8899C195.704 57.2482 196.47 56.9606 197.187 56.7508C198.792 56.282 200.444 55.9744 202.11 55.8352C202.351 55.8149 202.608 55.8015 202.819 55.92C203.029 56.0389 203.153 56.341 203.003 56.5305Z" fill="black"/>
<path fill-rule="evenodd" clip-rule="evenodd" d="M203.476 59.1598C201.622 59.3257 199.769 59.4915 197.915 59.6569C197.578 59.6872 197.071 59.4616 197.266 59.1831C199.173 58.5876 201.174 58.2975 203.171 58.327C203.665 58.3345 204.238 58.4055 204.498 58.8257C204.235 59.0813 203.84 59.1274 203.476 59.1598Z" fill="black"/>
<path fill-rule="evenodd" clip-rule="evenodd" d="M176.222 53.1259C175.829 53.588 175.033 53.4555 174.612 53.0191C174.191 52.5823 174.047 51.956 173.921 51.363C173.855 51.0538 173.797 50.7026 173.981 50.4453C174.174 50.1756 176.863 50.1565 176.991 50.3876C177.119 50.619 177.04 50.814 176.991 50.9935C176.903 51.3197 176.506 52.7914 176.222 53.1259Z" fill="black"/>
<path fill-rule="evenodd" clip-rule="evenodd" d="M162.183 60.457C164.52 59.494 167.129 59.2006 169.621 59.6204C169.889 59.6653 170.182 59.7355 170.334 59.9595C170.485 60.1839 170.339 60.5846 170.071 60.5463C167.175 60.1345 164.032 60.1644 161.567 61.7399C161.308 61.5928 161.29 61.1996 161.456 60.9524C161.621 60.7047 161.908 60.57 162.183 60.457Z" fill="black"/>
<path fill-rule="evenodd" clip-rule="evenodd" d="M179.343 62.7593C179.223 62.4131 179.481 61.9892 179.844 61.9373C179.989 62.0316 180.084 62.1982 180.092 62.3707C179.978 62.6379 179.681 62.8142 179.393 62.7855L179.343 62.7593Z" fill="#64717C"/>
<path fill-rule="evenodd" clip-rule="evenodd" d="M175.562 47.7577C175.967 47.7639 176.522 48.0349 176.345 48.3989C174.585 48.502 172.847 48.9679 171.271 49.7588C171.039 49.7355 170.928 49.4271 171.018 49.2114C171.108 48.9957 171.321 48.8615 171.527 48.7497C172.758 48.0814 174.162 47.7361 175.562 47.7577Z" fill="black"/>
<path fill-rule="evenodd" clip-rule="evenodd" d="M185.385 62.4635C185.642 62.1871 186.158 62.2328 186.362 62.5495C186.162 62.9314 185.491 62.8936 185.335 62.4918L185.385 62.4635Z" fill="#64717C"/>
<path fill-rule="evenodd" clip-rule="evenodd" d="M187.169 62.2797C187.347 62.0204 187.854 62.2448 187.782 62.5515C187.706 62.7061 187.539 62.8108 187.367 62.8108C187.17 62.7348 187.072 62.47 187.174 62.2843L187.169 62.2797Z" fill="#64717C"/>
<path fill-rule="evenodd" clip-rule="evenodd" d="M181.113 60.8689C180.935 61.1286 180.428 60.9038 180.501 60.5975C180.576 60.4429 180.744 60.3381 180.915 60.3381C181.113 60.4138 181.21 60.6789 181.109 60.8647L181.113 60.8689Z" fill="#64717C"/>
<path fill-rule="evenodd" clip-rule="evenodd" d="M178.122 61.5774C178.107 61.8788 178.481 62.1215 178.75 61.9843C179.018 61.8472 179.041 61.4017 178.789 61.2375C178.536 61.0737 178.138 61.2766 178.122 61.5774Z" fill="#64717C"/>
<path fill-rule="evenodd" clip-rule="evenodd" d="M185.756 61.3904C186.013 61.582 186.448 61.3958 186.486 61.0783C186.524 60.7604 186.145 60.4765 185.85 60.6025C185.557 60.7284 185.5 61.1988 185.756 61.3904Z" fill="#64717C"/>
<path fill-rule="evenodd" clip-rule="evenodd" d="M190.508 48.6583C192.014 47.569 194.097 48.0686 195.874 48.6126C196.152 48.6978 196.5 48.9534 196.339 49.1961C196.243 49.3403 196.034 49.3357 195.862 49.3145C194.077 49.0959 192.293 48.8769 190.508 48.6583Z" fill="black"/>
<path fill-rule="evenodd" clip-rule="evenodd" d="M183.777 61.3912C184.318 63.0744 186.265 64.1661 187.984 63.7501C188.74 63.5673 189.603 63.1563 190.223 63.6259C189.136 64.536 187.606 64.8897 186.229 64.5497C184.853 64.2094 183.665 63.1833 183.127 61.8717C182.061 63.357 180.371 64.3789 178.56 64.6324C178.29 64.6707 177.983 64.6815 177.779 64.5007C177.574 64.3199 177.628 63.8885 177.901 63.8694C179.395 63.7651 180.845 63.1089 181.909 62.0545C182.487 61.4822 182.962 60.5621 182.499 59.893C182.069 59.2692 181.723 58.5876 181.473 57.872C181.381 57.6068 181.309 57.2885 181.479 57.0653C181.606 56.8999 181.825 56.8434 182.027 56.7968C182.642 56.656 183.278 56.5142 183.898 56.6319C184.518 56.7491 185.121 57.1975 185.213 57.8217C185.407 59.14 183.368 60.1224 183.777 61.3912Z" fill="black"/>
<path fill-rule="evenodd" clip-rule="evenodd" d="M61.1054 56.8451C61.2393 56.4569 61.9624 56.5912 61.9474 57.0018C61.7962 57.3874 61.0788 57.2453 61.0855 56.8314L61.1054 56.8451Z" fill="#64717C"/>
<path fill-rule="evenodd" clip-rule="evenodd" d="M54.5782 58.6312C54.4955 58.2173 53.7046 58.3744 53.7869 58.7887C53.8692 59.2031 54.6605 59.0456 54.5782 58.6312Z" fill="#64717C"/>
<path fill-rule="evenodd" clip-rule="evenodd" d="M55.7002 59.3332C55.8897 59.0992 56.2239 58.994 56.5127 59.0771C56.6075 59.1952 56.6374 59.3618 56.5896 59.5052C56.3752 59.5925 56.1607 59.6798 55.9458 59.767C55.8553 59.6303 55.7642 59.4932 55.6732 59.356L55.7002 59.3332Z" fill="#64717C"/>
<path fill-rule="evenodd" clip-rule="evenodd" d="M55.7959 58.3503C55.6517 58.2502 55.5552 58.0847 55.5382 57.9102C55.6945 57.5852 56.248 57.5815 56.4093 57.9044C56.2609 58.1172 56.0419 58.2797 55.7955 58.359L55.7959 58.3503Z" fill="#64717C"/>
<path fill-rule="evenodd" clip-rule="evenodd" d="M50.7535 59.4213C50.539 59.701 50.0553 59.3381 50.1135 58.9903C50.1712 58.6429 50.4962 58.4168 50.7718 58.1973C51.359 57.7286 51.8324 57.1168 52.4719 56.722C53.1115 56.3272 54.0275 56.2137 54.5611 56.7432C53.06 57.2232 51.7127 58.1712 50.7535 59.4213Z" fill="black"/>
<path fill-rule="evenodd" clip-rule="evenodd" d="M48.9191 55.6224C49.7889 54.8087 50.8707 54.2227 52.0277 53.9388C52.2746 53.8782 52.5447 53.8333 52.7758 53.9393C53.0069 54.0457 53.1532 54.3632 52.9981 54.5652C51.5257 54.8266 50.1401 55.5559 49.0916 56.6215C48.9008 56.8156 48.5392 56.5816 48.5293 56.3098C48.5197 56.038 48.7204 55.8082 48.9191 55.6224Z" fill="black"/>
<path fill-rule="evenodd" clip-rule="evenodd" d="M59.9322 57.1094C59.906 56.9099 60.2476 57.0188 60.3499 57.1921C60.2111 57.3995 60.0718 57.6069 59.9326 57.8143C59.6438 57.7212 59.6305 57.2262 59.9139 57.1177L59.9322 57.1094Z" fill="#64717C"/>
<path fill-rule="evenodd" clip-rule="evenodd" d="M68.5359 56.0247C67.2775 55.6369 66.0187 55.2492 64.7603 54.8619C64.4656 54.7713 64.1435 54.6586 63.9939 54.3893C65.7315 53.9962 67.642 54.4612 69.0043 55.6095C69.0616 55.6581 69.1207 55.7122 69.1394 55.7845C69.2059 56.0421 68.7903 56.1028 68.5359 56.0247Z" fill="black"/>
<path fill-rule="evenodd" clip-rule="evenodd" d="M60.1995 58.2876C60.3396 58.1197 60.6376 58.1243 60.7722 58.2963C60.9073 58.4688 60.8404 58.7589 60.6434 58.8545C60.3508 58.8258 60.0998 58.5623 60.0848 58.2685L60.1995 58.2876Z" fill="#64717C"/>
<path fill-rule="evenodd" clip-rule="evenodd" d="M67.6474 58.7531C66.342 58.2947 65.0362 57.8363 63.7308 57.3783C63.624 57.3409 63.511 57.2989 63.4428 57.2087C63.2924 57.0113 63.4665 56.7038 63.7034 56.6298C63.9403 56.5559 64.1947 56.6386 64.4286 56.7208C65.1322 56.9673 65.8354 57.2141 66.539 57.4606C67.1412 57.6717 67.883 58.16 67.6474 58.7531Z" fill="black"/>
<path fill-rule="evenodd" clip-rule="evenodd" d="M238.614 2.06732C243.354 3.98653 246.578 8.60751 248.074 13.4974C249.57 18.3877 249.584 23.5901 249.586 28.7035C249.602 66.5907 249.617 104.478 249.632 142.365C249.632 147.908 249.589 153.669 247.185 158.663C244.98 163.241 240.808 166.83 235.951 168.325C232.427 169.41 228.674 169.418 224.986 169.418C155.162 169.406 85.3366 169.394 15.512 169.381C12.033 169.381 8.31356 169.309 5.45 167.334C0.864465 164.171 0.411012 157.69 0.409266 152.119C0.395593 108.831 0.381879 65.5426 0.368164 22.2539C0.368164 19.0364 0.37951 15.7403 1.4913 12.7211C3.41031 7.50952 8.39531 3.90716 13.6946 2.24644C18.9942 0.585733 24.6496 0.577006 30.2032 0.582409C42.7695 0.596955 55.3362 0.610668 67.9029 0.624383C121.546 0.682566 175.188 0.741164 228.831 0.799762C232.141 0.803503 235.546 0.824699 238.614 2.06732ZM121.792 168.509C121.762 140.963 121.732 113.417 121.702 85.8713C82.083 85.8871 42.4632 85.9033 2.84369 85.9195C2.50269 85.9195 2.12101 85.9361 1.88587 86.1834C1.66511 86.4153 1.65193 86.7694 1.65168 87.0894C1.63394 110.204 1.61619 133.319 1.59836 156.434C1.59836 157.638 1.59836 158.853 1.85254 160.03C2.69557 163.924 6.24553 166.77 10.0505 167.951C13.8554 169.132 17.9295 168.953 21.9104 168.804C37.3252 168.229 52.7558 168.28 68.1814 168.331C86.0515 168.39 103.922 168.449 121.792 168.509ZM122.809 85.9918C122.832 113.465 122.855 140.937 122.878 168.411C157.606 168.378 192.333 168.346 227.06 168.313C229.672 168.311 232.312 168.305 234.851 167.698C240.828 166.269 245.77 161.37 247.53 155.483C248.569 152.005 248.57 148.314 248.561 144.684C248.516 125.071 248.472 105.459 248.427 85.8468C206.554 85.895 164.682 85.9436 122.809 85.9918ZM122.797 2.02992C122.833 29.5746 122.869 57.1193 122.905 84.664C164.396 84.6665 205.887 84.6694 247.377 84.6723C247.723 84.6723 248.12 84.6486 248.331 84.3748C248.482 84.1786 248.488 83.9105 248.489 83.6628C248.494 63.5855 248.501 43.5078 248.507 23.4305C248.507 20.4665 248.504 17.4651 247.76 14.5958C245.729 6.75563 237.66 0.950207 229.581 1.51624C223.59 1.93558 217.578 1.9414 211.573 1.94722C181.981 1.97465 152.388 2.00249 122.797 2.02992ZM121.79 84.5576C121.757 57.0163 121.724 29.4749 121.691 1.9335C87.4815 1.92145 53.2724 1.90898 19.0632 1.89693C10.9953 1.89402 3.3845 8.24429 1.94214 16.1821C1.56607 18.2518 1.56836 20.3692 1.57118 22.473C1.60593 43.1728 1.64005 63.8731 1.67417 84.573C41.7122 84.7392 81.7513 84.7343 121.79 84.5576Z" fill="#6B7D99"/>
<path fill-rule="evenodd" clip-rule="evenodd" d="M58.966 57.1118C58.7229 57.7485 59.0321 58.4862 59.5213 58.9608C60.2348 59.6528 61.3337 59.9183 62.2841 59.6278C62.9682 59.4188 63.7973 58.9799 64.3035 59.4849C62.7949 61.0043 59.931 60.7902 58.6656 59.0635C58.2699 60.0945 57.3647 60.9158 56.3 61.2088C55.2357 61.5017 54.0375 61.2599 53.1702 60.5766C53.8077 60.0484 54.7527 60.4607 55.581 60.4653C56.4567 60.4702 57.3128 59.9345 57.691 59.1449C58.0696 58.3549 57.9503 57.352 57.3976 56.6725C56.834 55.9802 56.3977 55.1843 56.1167 54.3365C56.0519 54.1399 55.995 53.9263 56.0577 53.7293C56.1865 53.3258 56.7048 53.2302 57.1274 53.209C57.9944 53.1654 58.8626 53.1421 59.7303 53.1383C60.1476 53.1367 60.6529 53.1932 60.8283 53.5714C60.9434 53.8207 60.8603 54.1137 60.7589 54.3693C60.495 55.0347 60.1156 55.6539 59.6426 56.1913C59.3895 56.4789 59.1028 56.754 58.966 57.1118Z" fill="black"/>
<path fill-rule="evenodd" clip-rule="evenodd" d="M66.3877 40.1635C65.1047 39.925 63.7528 40.0688 62.5488 40.5717C62.3814 40.6415 62.1885 40.718 62.0269 40.6357C61.8299 40.5347 61.8095 40.2396 61.9321 40.0555C62.0547 39.871 62.2696 39.7737 62.4765 39.6943C64.606 38.8777 67.0904 39.0448 69.0915 40.139C68.3293 40.6697 67.3007 40.3335 66.3877 40.1635Z" fill="black"/>
<path fill-rule="evenodd" clip-rule="evenodd" d="M65.7593 46.6497C65.6508 46.8612 65.5207 47.0794 65.3088 47.187C64.9942 47.347 64.5861 47.1974 64.3712 46.9173C64.1568 46.6372 64.1048 46.2623 64.131 45.9107C64.1846 45.1922 64.8063 44.3855 65.4846 44.629C66.2119 44.89 66.1105 45.9614 65.7593 46.6497Z" fill="black"/>
<path fill-rule="evenodd" clip-rule="evenodd" d="M53.3052 45.4207C53.3816 46.0317 53.1115 46.7157 52.5529 46.9746C51.9944 47.2331 51.1998 46.8828 51.1399 46.2698C51.1192 46.0566 51.1815 45.8451 51.2467 45.641C51.4367 45.0459 51.8273 44.346 52.4499 44.3992C52.9291 44.4399 53.2457 44.9436 53.3052 45.4207Z" fill="black"/>
<path fill-rule="evenodd" clip-rule="evenodd" d="M47.8643 41.0417C47.7649 40.7225 48.1514 40.4786 48.4706 40.3788C50.3516 39.7908 52.3851 39.6977 54.3118 40.1108C54.5952 40.1719 54.9073 40.2658 55.0486 40.5189C55.1899 40.7716 54.9734 41.1859 54.6983 41.0953C52.8057 40.4736 50.704 40.5085 48.833 41.1926C48.4872 41.3193 47.974 41.3933 47.8643 41.0417Z" fill="black"/>
<path fill-rule="evenodd" clip-rule="evenodd" d="M75.6342 24.9644C75.4497 27.8985 75.2648 30.8413 75.4381 33.7759C75.5732 36.0604 75.9247 38.3316 75.9572 40.6198C76.0498 47.2332 73.4574 53.6387 69.9302 59.2339C78.3979 64.9287 84.7815 73.6533 87.6466 83.4472C86.426 82.6858 85.9011 81.2096 85.3882 79.8652C82.558 72.4414 77.5776 65.8518 71.2078 61.1032C70.2943 60.4225 68.7416 59.9075 68.2367 60.9286C67.0955 63.236 65.4086 65.2712 63.353 66.8209C62.6075 67.3828 61.7725 67.9385 61.1899 68.6441C61.1953 68.7019 61.1974 68.7601 61.1974 68.8187C61.1974 70.0123 60.2299 70.9798 59.0363 70.9798C58.225 70.9798 57.5181 70.533 57.1487 69.8718C51.7684 67.5062 47.3905 62.9144 45.3317 57.404C41.3977 60.132 39.1298 64.7745 38.2599 69.482C37.3905 74.1894 37.76 79.0269 38.1328 83.7992C37.74 84.0656 37.3722 83.4226 37.3273 82.9501C36.8735 78.1716 36.6188 73.3063 37.6104 68.6101C38.6015 63.9134 40.9708 59.3486 44.8853 56.5707C41.2526 48.6616 42.6652 38.9591 38.2337 31.4685C37.9707 31.0238 37.7492 30.3302 38.2096 30.0958C38.3805 30.0089 38.5845 30.0359 38.7736 30.0679C41.8635 30.5924 44.808 31.951 47.2118 33.9625C47.8319 34.4815 48.7595 34.1025 49.4843 33.7439C55.0524 30.9864 61.7015 30.4922 67.6162 32.3969C69.1019 29.5414 71.2913 27.0553 73.9353 25.22C74.4452 24.8659 75.1754 24.5459 75.6342 24.9644ZM56.534 63.556C58.4395 63.7231 60.3811 63.8881 62.2488 63.4733C66.5207 62.5249 69.5857 58.7455 71.5427 54.8315C73.784 50.3501 75.0395 45.3788 75.1954 40.3701C73.8135 41.4814 72.4317 42.5931 71.0498 43.7044C70.2315 44.3623 69.3376 45.1727 69.3534 46.2229C69.3758 47.7157 68.4507 49.1815 67.0934 49.8036C65.7356 50.4262 64.0217 50.1702 62.905 49.1786C61.645 48.0598 60.9289 46.0338 59.2503 45.8862C57.2704 45.7121 56.327 48.251 54.7341 49.4392C52.7039 50.9536 49.4273 49.8165 48.4141 47.4954C48.2213 47.0541 48.2903 46.2702 47.8485 46.0014C46.4405 45.144 44.8853 45.1128 43.0501 45.1739C43.3771 49.1723 44.3451 53.1176 45.9056 56.8134C46.5972 58.4509 47.44 60.0858 48.7973 61.2337C50.8882 63.0016 53.806 63.3167 56.534 63.556ZM68.0052 33.3033C67.3893 34.4786 66.3561 35.9498 65.1168 35.4752C65.9127 34.7932 66.6005 33.9853 67.1462 33.0905C60.98 31.3326 54.1493 32.0337 48.4686 35.0068C48.9577 35.5986 49.5591 36.0974 50.2311 36.4681C49.52 37.1455 48.4228 36.3151 47.75 35.5999C45.4597 33.1649 42.3294 31.5362 39.0213 31.0579C40.3786 33.2364 41.6337 37.5519 42.7862 44.004C44.6538 44.4267 45.9093 44.6445 46.5527 44.6582C47.2924 44.674 48.1943 44.5971 48.5176 43.9313C49.3725 42.1725 51.5128 41.1464 53.4191 41.5819C55.3259 42.0171 56.8087 43.8706 56.8153 45.826C58.0517 45.016 59.7062 44.8876 61.0527 45.4968C61.1932 43.8324 62.4541 42.3205 64.0658 41.8837C65.6779 41.4465 67.5293 42.1143 68.4914 43.4795C68.9099 44.0734 69.8359 43.6371 70.3907 43.1683C71.5411 42.197 72.691 41.2254 73.841 40.2541C74.4893 39.7068 75.202 38.9965 75.0661 38.1591C74.3933 34.0123 74.3093 29.7704 74.8176 25.6003C71.9712 27.5698 69.6119 30.2375 68.0052 33.3033ZM65.0657 63.16C62.2979 65.0401 58.6444 64.7126 55.3225 64.3103C53.5076 64.0905 51.63 63.8494 50.0698 62.8969C49.7494 62.7011 49.3293 62.4771 49.0329 62.7082C50.8927 65.0293 53.3011 66.9078 56.0049 68.1467C56.4068 68.3308 56.999 68.4392 57.1898 68.0407C57.6278 67.1231 58.9565 66.7835 59.781 67.3778C60.4518 67.8616 61.379 67.3969 62.0418 66.9028C63.5301 65.7927 64.8887 64.5086 66.0806 63.0847C65.906 62.7394 65.3861 62.9426 65.0657 63.16ZM49.3687 47.5794C50.2033 48.9878 52.1071 49.6519 53.6365 49.0672C55.1654 48.4829 56.1417 46.7191 55.8242 45.1128C55.5071 43.507 53.9332 42.2465 52.2966 42.288C50.66 42.3292 49.1518 43.6674 48.9157 45.2874C48.8015 46.0728 48.964 46.8965 49.3687 47.5794ZM62.0817 45.144C61.8852 46.3077 62.3407 47.5341 63.166 48.3773C63.7724 48.9965 64.6081 49.4342 65.4746 49.4022C67.0231 49.3448 68.1494 47.864 68.6269 46.3899C68.7516 46.0055 68.8493 45.597 68.7736 45.2001C68.6755 44.6848 68.3011 44.2683 67.9104 43.9184C66.9292 43.0403 65.606 42.3749 64.323 42.67C63.1731 42.9343 62.2783 43.9808 62.0817 45.144Z" fill="black"/>
</svg>
