<svg width="20" height="20" viewBox="0 0 20 20" fill="none" xmlns="http://www.w3.org/2000/svg">
<path fill-rule="evenodd" clip-rule="evenodd" d="M7.75817 2.48026C8.27911 1.95933 8.98565 1.66667 9.72236 1.66667C10.4591 1.66667 11.1656 1.95933 11.6865 2.48026C12.2075 3.0012 12.5001 3.70774 12.5001 4.44445V10C12.5001 10.7367 12.2075 11.4433 11.6865 11.9642C11.1656 12.4851 10.4591 12.7778 9.72236 12.7778C8.98565 12.7778 8.27911 12.4851 7.75817 11.9642C7.23724 11.4433 6.94458 10.7367 6.94458 10V4.44445C6.94458 3.70774 7.23724 3.0012 7.75817 2.48026ZM9.72236 3.05556C9.354 3.05556 9.00073 3.20189 8.74026 3.46236C8.4798 3.72282 8.33347 4.07609 8.33347 4.44445V10C8.33347 10.3684 8.4798 10.7216 8.74026 10.9821C9.00073 11.2426 9.354 11.3889 9.72236 11.3889C10.0907 11.3889 10.444 11.2426 10.7045 10.9821C10.9649 10.7216 11.1112 10.3684 11.1112 10V4.44445C11.1112 4.07609 10.9649 3.72282 10.7045 3.46236C10.444 3.20189 10.0907 3.05556 9.72236 3.05556Z" fill="#F5F9FF" fill-opacity="0.95"/>
<path fill-rule="evenodd" clip-rule="evenodd" d="M4.86119 7.91667C5.24472 7.91667 5.55564 8.22759 5.55564 8.61112V10C5.55564 11.1051 5.99462 12.1649 6.77603 12.9463C7.55743 13.7277 8.61723 14.1667 9.7223 14.1667C10.8274 14.1667 11.8872 13.7277 12.6686 12.9463C13.45 12.1649 13.889 11.1051 13.889 10V8.61112C13.889 8.22759 14.1999 7.91667 14.5834 7.91667C14.9669 7.91667 15.2779 8.22759 15.2779 8.61112V10C15.2779 11.4734 14.6925 12.8865 13.6507 13.9284C12.6088 14.9702 11.1957 15.5556 9.7223 15.5556C8.24888 15.5556 6.8358 14.9702 5.79393 13.9284C4.75206 12.8865 4.16675 11.4734 4.16675 10V8.61112C4.16675 8.22759 4.47766 7.91667 4.86119 7.91667Z" fill="#F5F9FF" fill-opacity="0.95"/>
<path fill-rule="evenodd" clip-rule="evenodd" d="M9.72228 14.1667C10.1058 14.1667 10.4167 14.4776 10.4167 14.8611V17.6389C10.4167 18.0224 10.1058 18.3333 9.72228 18.3333C9.33875 18.3333 9.02783 18.0224 9.02783 17.6389V14.8611C9.02783 14.4776 9.33875 14.1667 9.72228 14.1667Z" fill="#F5F9FF" fill-opacity="0.95"/>
<path fill-rule="evenodd" clip-rule="evenodd" d="M6.25 17.6388C6.25 17.2553 6.56091 16.9444 6.94444 16.9444H12.5C12.8835 16.9444 13.1944 17.2553 13.1944 17.6388C13.1944 18.0224 12.8835 18.3333 12.5 18.3333H6.94444C6.56091 18.3333 6.25 18.0224 6.25 17.6388Z" fill="#F5F9FF" fill-opacity="0.95"/>
</svg>
