<svg width="138" height="116" viewBox="0 0 138 116" fill="none" xmlns="http://www.w3.org/2000/svg">
<path d="M21.7759 77.8335V83.245H10.9353" stroke="#2D3440" stroke-width="1.05078" stroke-miterlimit="10" stroke-linecap="round" stroke-linejoin="round"/>
<path d="M32.5993 83.245H21.7762V77.8335" stroke="#2D3440" stroke-width="1.05078" stroke-miterlimit="10" stroke-linecap="round" stroke-linejoin="round"/>
<path d="M27.1875 83.245H16.3469V88.6566H27.1875V83.245Z" stroke="#2D3440" stroke-width="1.05078" stroke-miterlimit="10" stroke-linecap="round" stroke-linejoin="round"/>
<path d="M24.841 94.0856H21.7762V88.6566H32.5993" stroke="#2D3440" stroke-width="1.05078" stroke-miterlimit="10" stroke-linecap="round" stroke-linejoin="round"/>
<path d="M10.9353 88.6566H21.7759V94.0856H12.9843" stroke="#2D3440" stroke-width="1.05078" stroke-miterlimit="10" stroke-linecap="round" stroke-linejoin="round"/>
<path d="M7.24023 83.245H16.347V88.6566H10.9355" stroke="#2D3440" stroke-width="1.05078" stroke-miterlimit="10" stroke-linecap="round" stroke-linejoin="round"/>
<path d="M34.9982 88.6566H27.1874V83.245H30.9352" stroke="#2D3440" stroke-width="1.05078" stroke-miterlimit="10" stroke-linecap="round" stroke-linejoin="round"/>
<path d="M122.249 43.9807V49.3923H133.089" stroke="#2D3440" stroke-width="1.05078" stroke-miterlimit="10" stroke-linecap="round" stroke-linejoin="round"/>
<path d="M111.425 49.3923H122.248V43.9807" stroke="#2D3440" stroke-width="1.05078" stroke-miterlimit="10" stroke-linecap="round" stroke-linejoin="round"/>
<path d="M116.834 54.8265H127.675V49.4149H116.834V54.8265Z" stroke="#2D3440" stroke-width="1.05078" stroke-miterlimit="10" stroke-linecap="round" stroke-linejoin="round"/>
<path d="M119.183 60.233H122.248V54.8214H111.425" stroke="#2D3440" stroke-width="1.05078" stroke-miterlimit="10" stroke-linecap="round" stroke-linejoin="round"/>
<path d="M133.089 54.8214H122.249V60.233H131.04" stroke="#2D3440" stroke-width="1.05078" stroke-miterlimit="10" stroke-linecap="round" stroke-linejoin="round"/>
<path d="M136.784 49.3922H127.677V54.8213H133.089" stroke="#2D3440" stroke-width="1.05078" stroke-miterlimit="10" stroke-linecap="round" stroke-linejoin="round"/>
<path d="M109.026 54.8213H116.837V49.3922H113.089" stroke="#2D3440" stroke-width="1.05078" stroke-miterlimit="10" stroke-linecap="round" stroke-linejoin="round"/>
<path d="M81.8633 20.6009C87.2797 20.6009 91.6706 16.2101 91.6706 10.7937C91.6706 5.37724 87.2797 0.986374 81.8633 0.986374C76.4469 0.986374 72.056 5.37724 72.056 10.7937C72.056 16.2101 76.4469 20.6009 81.8633 20.6009Z" fill="#2D3440" stroke="#6B7D99" stroke-width="1.05078" stroke-miterlimit="10" stroke-linecap="round" stroke-linejoin="round"/>
<path d="M81.8633 1.98466V2.93037V1.98466Z" fill="#2D3440"/>
<path d="M81.8633 1.98466V2.93037" stroke="#6B7D99" stroke-width="1.05078" stroke-miterlimit="10" stroke-linecap="round" stroke-linejoin="round"/>
<path d="M81.8633 18.6395V19.5852V18.6395Z" fill="#2D3440"/>
<path d="M81.8633 18.6395V19.5852" stroke="#6B7D99" stroke-width="1.05078" stroke-miterlimit="10" stroke-linecap="round" stroke-linejoin="round"/>
<path d="M90.6721 10.7937H89.7264H90.6721Z" fill="#2D3440"/>
<path d="M90.6721 10.7937H89.7264" stroke="#6B7D99" stroke-width="1.05078" stroke-miterlimit="10" stroke-linecap="round" stroke-linejoin="round"/>
<path d="M74.0172 10.7937H73.054H74.0172Z" fill="#2D3440"/>
<path d="M74.0172 10.7937H73.054" stroke="#6B7D99" stroke-width="1.05078" stroke-miterlimit="10" stroke-linecap="round" stroke-linejoin="round"/>
<path d="M82.5638 10.7937C82.5638 11.1805 82.2501 11.4942 81.8633 11.4942C81.4764 11.4942 81.1628 11.1805 81.1628 10.7937C81.1628 10.4068 81.4764 10.0931 81.8633 10.0931C82.2501 10.0931 82.5638 10.4068 82.5638 10.7937Z" fill="#2D3440" stroke="#6B7D99" stroke-width="0.17513"/>
<path d="M81.8633 10.7937L86.1014 5.55733L81.8633 10.7937Z" fill="#2D3440"/>
<path d="M81.8633 10.7937L86.1014 5.55733" stroke="#6B7D99" stroke-width="0.70052" stroke-miterlimit="10" stroke-linecap="round" stroke-linejoin="round"/>
<path d="M79.201 8.16672L81.863 10.7937L79.201 8.16672Z" fill="#2D3440"/>
<path d="M79.201 8.16672L81.863 10.7937" stroke="#6B7D99" stroke-width="1.05078" stroke-miterlimit="10" stroke-linecap="round" stroke-linejoin="round"/>
<path d="M24.438 10.9689H2.84448V32.9127H24.438V10.9689Z" stroke="#475366" stroke-width="1.40104" stroke-miterlimit="10" stroke-linecap="round" stroke-linejoin="round"/>
<path d="M21.4245 29.5355V14.3867H5.85547V29.5355H21.4245Z" stroke="#475366" stroke-width="0.70052" stroke-miterlimit="10" stroke-linecap="round" stroke-linejoin="round"/>
<path d="M48.7281 3.98122H29.709V17.6063H48.7281V3.98122Z" stroke="#475366" stroke-width="1.40104" stroke-miterlimit="10" stroke-linecap="round" stroke-linejoin="round"/>
<path d="M45.9425 14.8062V6.7677H32.51V14.8062H45.9425Z" stroke="#475366" stroke-width="0.70052" stroke-miterlimit="10" stroke-linecap="round" stroke-linejoin="round"/>
<path d="M40.8559 38.9581V26.2436H32.5022V38.9581H40.8559Z" stroke="#475366" stroke-width="0.70052" stroke-miterlimit="10" stroke-linecap="round" stroke-linejoin="round"/>
<path d="M43.6493 23.4557H29.709V41.7568H43.6493V23.4557Z" stroke="#475366" stroke-width="1.40104" stroke-miterlimit="10" stroke-linecap="round" stroke-linejoin="round"/>
<path d="M125.085 104.015H126.469" stroke="#A83727" stroke-width="1.05078" stroke-miterlimit="10" stroke-linecap="round" stroke-linejoin="round"/>
<path d="M119.569 104.015H122.809" stroke="#A83727" stroke-width="1.05078" stroke-miterlimit="10" stroke-linecap="round" stroke-linejoin="round"/>
<path d="M61.8984 104.015H117.117" stroke="#A83727" stroke-width="1.05078" stroke-miterlimit="10" stroke-linecap="round" stroke-linejoin="round"/>
<path d="M14.0878 104.015H58.2206" stroke="#A83727" stroke-width="1.05078" stroke-miterlimit="10" stroke-linecap="round" stroke-linejoin="round"/>
<path d="M6.46997 104.015H10.3228" stroke="#A83727" stroke-width="1.05078" stroke-miterlimit="10" stroke-linecap="round" stroke-linejoin="round"/>
<path d="M1.21606 104.015H3.31763" stroke="#A83727" stroke-width="1.05078" stroke-miterlimit="10" stroke-linecap="round" stroke-linejoin="round"/>
<path d="M37.0126 84.7862C33.8252 82.7547 28.2036 79.182 25.7693 71.7565C24.0705 66.5726 24.0355 60.0578 25.8568 59.4448C27.9759 58.7443 31.6711 66.2399 33.0196 65.5919C34.0879 65.084 31.8638 60.4431 31.5661 52.5797C31.3559 47.2208 32.1265 42.6148 34.5433 38.5168C35.6466 36.6429 36.4522 35.2594 37.3454 35.3645C41.0056 35.7848 39.9723 60.5832 43.8777 61.056C45.7166 61.2837 47.1877 55.9422 49.2542 56.3801C51.0055 56.7478 52.1789 61.0736 52.4941 63.8756C52.5116 64.0157 52.5291 64.1208 52.5291 64.2084C53.4398 73.2976 48.1334 79.8475 46.347 82.0717C43.6676 85.3641 41.8637 86.0296 40.4627 86.0471C38.9916 86.0296 37.8707 85.3466 37.0126 84.7862Z" fill="#6DCCA3"/>
<path d="M36.0668 50.2155C36.6797 56.6953 40.3575 66.5551 40.9004 74.9088C41.2506 80.3554 40.9179 85.154 40.375 89.0944" stroke="#465172" stroke-width="1.05078" stroke-miterlimit="10" stroke-linecap="round" stroke-linejoin="round"/>
<path d="M52.9665 104.015H25.8213C23.0893 99.1819 23.1944 93.245 26.084 88.5164L30.077 81.9841H48.6933L52.5637 88.0261C55.4358 92.4919 55.7686 98.1486 53.4744 102.93L52.9665 104.015Z" fill="#2359B2"/>
<path d="M44.7355 65.084C44.7355 65.084 44.6654 68.0613 40.5674 71.9316" stroke="#465172" stroke-width="1.05078" stroke-miterlimit="10" stroke-linecap="round" stroke-linejoin="round"/>
<path d="M31.7936 71.9316C31.7936 71.9316 34.5431 77.5358 41.0404 77.5358" stroke="#465172" stroke-width="1.05078" stroke-miterlimit="10" stroke-linecap="round" stroke-linejoin="round"/>
<path opacity="0.67" d="M46.0139 86.6076C46.0139 86.6076 50.147 89.3046 50.147 95.7669" stroke="#1E2A54" stroke-width="1.05078" stroke-miterlimit="10" stroke-linecap="round" stroke-linejoin="round"/>
<path d="M70.76 105.732C70.76 110.846 79.499 115.014 90.2695 115.014C98.7108 115.014 105.891 112.474 108.606 108.902L88.203 110.373L70.76 105.732Z" fill="#2D3440"/>
<path d="M105.804 105.224C105.296 105.119 104.753 105.171 104.28 105.364C101.198 106.572 95.8037 107.378 89.6741 107.378C80.0945 107.378 72.3362 105.417 72.3362 103C72.3362 100.863 78.4133 99.0768 86.4517 98.6915L87.0121 95.7668C75.9965 96.4498 67.6252 99.8649 67.6252 103.963C67.6252 108.551 78.1331 112.282 91.0927 112.282C96.7669 112.282 101.968 111.564 106.031 110.373C108.658 109.585 108.501 105.784 105.804 105.224Z" fill="#EB7047"/>
<path opacity="0.26" d="M96.5916 107.01L104.998 105.171C104.998 105.171 107.204 105.399 107.607 106.572C108.308 108.569 106.872 109.795 106.872 109.795C106.872 109.795 106.329 105.171 96.5916 107.01Z" fill="#9B463D"/>
<path d="M105.804 105.224C105.296 105.119 104.753 105.171 104.28 105.364C101.198 106.572 95.8037 107.378 89.6741 107.378C80.0945 107.378 72.3362 105.417 72.3362 103C72.3362 100.863 78.4133 99.0768 86.4517 98.6915L87.0121 95.7668C75.9965 96.4498 67.6252 99.8649 67.6252 103.963C67.6252 108.551 78.1331 112.282 91.0927 112.282C96.7669 112.282 101.968 111.564 106.031 110.373C108.658 109.585 108.501 105.784 105.804 105.224Z" stroke="#A83727" stroke-width="1.05078" stroke-miterlimit="10" stroke-linecap="round" stroke-linejoin="round"/>
<path d="M104.157 43.7182C101.355 42.825 98.2554 42.3171 95.0155 42.3171C91.7931 42.3171 88.7283 42.8075 85.9262 43.6832C84.2275 39.7077 81.9158 36.4678 79.4814 34.4538C79.0962 34.1386 78.5182 34.2436 78.273 34.6815C73.4219 43.4555 71.2503 53.4904 72.161 64.4361C73.0016 76.6602 77.7126 90.0926 82.1784 103.98H107.888C112.371 90.1101 117.029 76.8178 117.905 64.7513C118.868 53.7356 116.662 43.6656 111.67 34.8041C111.425 34.3662 110.847 34.2612 110.462 34.5764C108.08 36.6079 105.821 39.7953 104.157 43.7182Z" fill="#EB7047"/>
<path opacity="0.26" d="M97.1695 60.1804C97.1695 60.8284 96.2063 61.3538 94.9979 61.3538C93.807 61.3538 92.8263 60.8284 92.8263 60.1804L95.0154 59.6901L97.1695 60.1804Z" fill="#9B463D"/>
<path opacity="0.26" d="M103.982 103.735C103.982 103.735 103.982 102.352 104.244 101.196C106.556 90.9158 105.033 87.7459 105.033 87.7459L100.164 103.77L103.982 103.735Z" fill="#9B463D"/>
<path opacity="0.26" d="M85.6809 103.735C85.6809 103.735 85.6809 102.352 85.4182 101.196C83.1065 90.9158 84.6301 87.7459 84.6301 87.7459L89.4987 103.77L85.6809 103.735Z" fill="#9B463D"/>
<path d="M104.157 43.7182C101.355 42.825 98.2554 42.3171 95.0155 42.3171C91.7931 42.3171 88.7283 42.8075 85.9262 43.6832C84.2275 39.7077 81.9158 36.4678 79.4814 34.4538C79.0962 34.1386 78.5182 34.2436 78.273 34.6815C73.4219 43.4555 71.2503 53.4904 72.161 64.4361C73.0016 76.6602 77.7126 90.0926 82.1784 103.98H107.888C112.371 90.1101 117.029 76.8178 117.905 64.7513C118.868 53.7356 116.662 43.6656 111.67 34.8041C111.425 34.3662 110.847 34.2612 110.462 34.5764C108.08 36.6079 105.821 39.7953 104.157 43.7182Z" stroke="#A83727" stroke-width="1.05078" stroke-miterlimit="10" stroke-linecap="round" stroke-linejoin="round"/>
<path d="M87.7475 52.1069C88.5212 52.1069 89.1485 51.4795 89.1485 50.7058C89.1485 49.9321 88.5212 49.3048 87.7475 49.3048C86.9738 49.3048 86.3464 49.9321 86.3464 50.7058C86.3464 51.4795 86.9738 52.1069 87.7475 52.1069Z" fill="#A83727"/>
<path d="M102.283 52.1069C103.057 52.1069 103.684 51.4795 103.684 50.7058C103.684 49.9321 103.057 49.3048 102.283 49.3048C101.51 49.3048 100.882 49.9321 100.882 50.7058C100.882 51.4795 101.51 52.1069 102.283 52.1069Z" fill="#A83727"/>
<path d="M96.189 55.4169C95.4185 55.3468 94.6479 55.3468 93.8773 55.4169C93.5095 55.4519 93.387 55.8196 93.6672 56.0123C93.9123 56.1699 94.1575 56.3275 94.4027 56.5027C94.753 56.7478 95.3309 56.7478 95.6812 56.5027C95.9263 56.3275 96.1715 56.1699 96.4167 56.0123C96.6794 55.8196 96.5393 55.4519 96.189 55.4169Z" fill="#A83727"/>
<path d="M104.998 88.2538C104.7 93.4201 102.301 98.8492 100.655 104.016C98.9562 104.016 95.0157 104.016 95.0157 104.016L95.0508 89.4622" fill="#EB7047"/>
<path d="M85.0155 88.2538C85.3132 93.4202 88.2379 98.8492 89.8841 104.016C91.5829 104.016 94.9979 104.016 94.9979 104.016L94.9629 89.4622" fill="#EB7047"/>
<path d="M98.2377 60.0228C97.9225 60.1979 97.5372 60.303 97.1519 60.303C95.9785 60.303 95.0328 59.4448 95.0328 58.3941" stroke="#A83727" stroke-width="1.05078" stroke-miterlimit="10" stroke-linecap="round" stroke-linejoin="round"/>
<path d="M91.793 60.0228C92.1082 60.1979 92.4935 60.303 92.8788 60.303C94.0521 60.303 94.9978 59.4449 94.9978 58.3941" stroke="#A83727" stroke-width="1.05078" stroke-miterlimit="10" stroke-linecap="round" stroke-linejoin="round"/>
<path d="M104.998 88.2538C104.7 93.4201 101.776 98.8492 100.13 104.016C98.4308 104.016 95.0157 104.016 95.0157 104.016L95.0508 89.4622" stroke="#A83727" stroke-width="1.05078" stroke-miterlimit="10" stroke-linecap="round" stroke-linejoin="round"/>
<path d="M85.0155 88.2538C85.3132 93.4202 87.7125 98.8492 89.3587 104.016C91.0575 104.016 94.9979 104.016 94.9979 104.016L94.9629 89.4622" stroke="#A83727" stroke-width="1.05078" stroke-miterlimit="10" stroke-linecap="round" stroke-linejoin="round"/>
<path opacity="0.26" d="M106.749 45.7322C108.045 41.7567 109.937 40.7409 109.937 40.7409C109.937 40.7409 111.303 41.2488 111.303 46.6603" fill="#9B463D"/>
<path opacity="0.26" d="M83.2817 45.7322C81.9857 41.7567 80.0943 40.7409 80.0943 40.7409C80.0943 40.7409 78.7283 41.2488 78.7283 46.6603" fill="#9B463D"/>
<path d="M91.8983 101.914L92.3361 103.893" stroke="#A83727" stroke-width="1.05078" stroke-miterlimit="10" stroke-linecap="round" stroke-linejoin="round"/>
<path d="M98.133 101.914L97.6952 103.893" stroke="#A83727" stroke-width="1.05078" stroke-miterlimit="10" stroke-linecap="round" stroke-linejoin="round"/>
<g opacity="0.24">
<path opacity="0.24" d="M102.879 59.2697C104.998 59.8301 107.187 59.9352 109.289 59.6199" stroke="#A83727" stroke-width="0.35026" stroke-miterlimit="10" stroke-linecap="round" stroke-linejoin="round"/>
<path opacity="0.24" d="M102.283 60.6006C104.21 61.8265 106.206 62.6672 108.133 63.105" stroke="#A83727" stroke-width="0.35026" stroke-miterlimit="10" stroke-linecap="round" stroke-linejoin="round"/>
<path opacity="0.24" d="M102.879 57.3783C104.613 57.2557 106.399 56.7828 108.133 55.9597" stroke="#A83727" stroke-width="0.35026" stroke-miterlimit="10" stroke-linecap="round" stroke-linejoin="round"/>
<path opacity="0.24" d="M87.1527 59.2697C85.0336 59.8301 82.8445 59.9352 80.7429 59.6199" stroke="#A83727" stroke-width="0.35026" stroke-miterlimit="10" stroke-linecap="round" stroke-linejoin="round"/>
<path opacity="0.24" d="M87.7478 60.6006C85.8213 61.8265 83.8249 62.6672 81.8984 63.105" stroke="#A83727" stroke-width="0.35026" stroke-miterlimit="10" stroke-linecap="round" stroke-linejoin="round"/>
<path opacity="0.24" d="M87.1523 57.3783C85.4186 57.2557 83.6322 56.7828 81.8984 55.9597" stroke="#A83727" stroke-width="0.35026" stroke-miterlimit="10" stroke-linecap="round" stroke-linejoin="round"/>
</g>
</svg>
